<svg xmlns="http://www.w3.org/2000/svg" width="18" height="17" fill="none" viewBox="0 0 18 17"><path fill="#fff" d="M3.809 16.75H.28V5.567h3.53zM2.043 4.041A2.044 2.044 0 0 1 0 2.011C0 1.478.215.966.598.59A2.06 2.06 0 0 1 2.043 0a2.06 2.06 0 0 1 1.445.59c.383.376.598.888.598 1.421 0 1.11-.915 2.03-2.043 2.03m14.97 12.709h-3.52v-5.444c0-1.297-.027-2.961-1.835-2.961-1.834 0-2.115 1.41-2.115 2.868v5.537H6.019V5.567h3.383v1.525h.05c.47-.878 1.621-1.806 3.338-1.806 3.57 0 4.226 2.315 4.226 5.32v6.144z"/></svg>