<svg xmlns="http://www.w3.org/2000/svg" width="10" height="18" fill="none" viewBox="0 0 10 18"><path fill="#FDFEFF" fill-rule="evenodd" d="M7.494 3.037c.558-.018 1.115-.004 1.674-.005h.23v-2.9C9.1.102 8.788.059 8.477.044 7.905.019 7.332-.01 6.759.004c-.874.018-1.7.23-2.423.748-.83.597-1.284 1.434-1.457 2.422-.072.408-.09.83-.101 1.245-.016.651-.003 1.301-.002 1.953v.244H0v3.24h2.76V18h3.372V9.869h2.75l.423-3.255h-.618c-.782.003-2.578 0-2.578 0s.008-1.606.027-2.303c.027-.955.593-1.246 1.358-1.274" clip-rule="evenodd"/></svg>