<svg xmlns="http://www.w3.org/2000/svg" width="19" height="19" fill="none" viewBox="0 0 19 19"><path fill="#1E252B" d="M9.487 4.57c-2.691 0-4.862 2.148-4.862 4.81s2.17 4.81 4.862 4.81 4.863-2.148 4.863-4.81-2.171-4.81-4.863-4.81m0 7.937c-1.74 0-3.161-1.402-3.161-3.127s1.418-3.127 3.161-3.127S12.65 7.655 12.65 9.38s-1.422 3.127-3.162 3.127m6.196-8.134c0 .624-.508 1.122-1.134 1.122-.63 0-1.134-.502-1.134-1.122s.508-1.121 1.134-1.121 1.134.502 1.134 1.121m3.22 1.14c-.071-1.504-.418-2.835-1.531-3.932C16.262.485 14.917.141 13.398.066c-1.566-.088-6.26-.088-7.825 0C4.058.137 2.712.48 1.599 1.577S.143 4.005.067 5.507c-.09 1.55-.09 6.192 0 7.741.072 1.503.419 2.834 1.532 3.93 1.113 1.098 2.454 1.44 3.974 1.516 1.565.088 6.259.088 7.825 0 1.52-.071 2.865-.414 3.974-1.515 1.108-1.097 1.456-2.428 1.532-3.931.089-1.549.089-6.187 0-7.736m-2.022 9.397c-.33.82-.97 1.452-1.803 1.783-1.249.49-4.211.377-5.59.377-1.38 0-4.347.109-5.591-.377a3.18 3.18 0 0 1-1.803-1.783c-.495-1.235-.381-4.165-.381-5.53s-.11-4.3.38-5.53c.33-.82.97-1.452 1.804-1.783 1.248-.49 4.21-.377 5.59-.377s4.347-.109 5.59.377a3.18 3.18 0 0 1 1.804 1.783c.495 1.235.38 4.165.38 5.53s.115 4.3-.38 5.53"/></svg>