<svg viewBox="0 0 80 80" version="1.1" xmlns="http://www.w3.org/2000/svg"><g stroke="none" stroke-width="1" fill="none" fill-rule="evenodd"><g transform="translate(-980.000000, -1874.000000)"><g transform="translate(980.000000, 1874.000000)"><g stroke="#000000" stroke-width="2"><circle cx="40" cy="40" r="39"/></g><g transform="translate(15.000000, 15.000000)"><path d="M34.8451105,11.440317 C34.8451105,12.1352975 34.2813739,12.6990341 33.5863935,12.6990341 C32.890733,12.6990341 32.3269964,12.1352975 32.3269964,11.440317 C32.3269964,10.7453366 32.890733,10.1816 33.5863935,10.1816 C34.2813739,10.1816 34.8451105,10.7453366 34.8451105,11.440317" id="Fill-1" fill="#000000"/><path d="M18.3738013,22.3731351 C18.3738013,23.0681156 17.8100647,23.6318522 17.1150842,23.6318522 C16.4194237,23.6318522 15.8563671,23.0681156 15.8563671,22.3731351 C15.8563671,21.6781546 16.4194237,21.114418 17.1150842,21.114418 C17.8100647,21.114418 18.3738013,21.6781546 18.3738013,22.3731351" id="Fill-3" fill="#000000"/><polyline stroke="#000000" stroke-width="2" stroke-linecap="square" points="20.4228377 8.82598002 33.368379 0 50.6476881 11.0632459 37.1628908 20.2509966"/><polyline stroke="#000000" stroke-width="2" stroke-linecap="square" points="13.5868003 13.4844573 0 22.7395299 17.2793091 33.8034559 29.3469446 25.5786136"/><polyline stroke="#000000" stroke-width="2" stroke-linecap="square" points="24.8446679 11.5712889 33.4503215 5.70475606 42.0117737 11.1857175 36.0629584 15.240677"/><polyline stroke="#000000" stroke-width="2" stroke-linecap="square" points="14.5424324 18.5884836 8.62965823 22.6169223 17.1979107 28.0978838 25.6002382 22.3734751"/><polyline stroke="#000000" stroke-width="2" stroke-linecap="square" points="6.03979119e-16 27.7580778 17.2793091 38.8288039 30.1711288 30.0429451"/><line x1="50.6478921" y1="16.088934" x2="38.3694504" y2="24.4552205" stroke="#000000" stroke-width="2" stroke-linecap="square"/><polyline stroke="#000000" stroke-width="2" stroke-linecap="square" points="6.03979119e-16 32.7834258 17.2793091 43.854152 29.7712771 35.3409812"/><line x1="50.6478921" y1="21.114282" x2="38.3694504" y2="29.4805685" stroke="#000000" stroke-width="2" stroke-linecap="square"/><polyline stroke="#000000" stroke-width="2" stroke-linecap="square" points="6.03979119e-16 37.8087739 17.2793091 48.8795 30.8797097 39.6108269"/><line x1="50.6478921" y1="26.1396301" x2="38.3694504" y2="34.5059166" stroke="#000000" stroke-width="2" stroke-linecap="square"/><path d="M13.8031826,13.6599704 L30.8764456,24.5872123 L30.8764456,39.8033406 C30.8764456,40.4820006 31.6414682,40.8777723 32.1956845,40.4867607 L37.1911117,36.9608569 C37.4127982,36.8044523 37.5447221,36.5494448 37.5447221,36.2774367 L37.5447221,20.4982519 L19.2345027,8.77878662 C18.8305708,8.52037901 18.3103554,8.52989929 17.9166238,8.80326735 L13.7664616,11.6831522 C13.069441,12.1666464 13.0891616,13.202997 13.8031826,13.6599704 Z" id="Stroke-25" stroke="#000000" stroke-width="2" stroke-linecap="square"/></g></g></g></g></svg>