<svg viewBox="0 0 80 80" version="1.1" xmlns="http://www.w3.org/2000/svg"><g stroke="none" stroke-width="1" fill="none" fill-rule="evenodd"><g transform="translate(-980.000000, -1999.000000)"><g transform="translate(980.000000, 1999.000000)"><g stroke="#000000" stroke-width="2"><circle cx="40" cy="40" r="39"/></g><g transform="translate(6.375000, 9.000000)"><polygon points="3.625 0 62.625 0 62.625 59 3.625 59"/><path d="M47.776125,41.1770833 C40.5760026,33.9777778 28.9031641,33.9777778 21.7030417,41.1770833" id="Path" stroke="#000000" stroke-width="2" stroke-linecap="round" stroke-linejoin="round"/><path d="M48.875,9.3515 C41.8203654,5.27859229 32.7997181,7.69554464 28.7265,14.75 L54.2735,29.5 C58.3464077,22.4453654 55.9294554,13.4247181 48.875,9.3515 L48.875,9.3515 Z" stroke="#000000" stroke-width="2" stroke-linecap="round" stroke-linejoin="round"/><path d="M45.7578333,24.5833333 C49.83375,17.5279167 51.227625,10.7085 48.875,9.3515 C46.522375,7.9945 41.315625,12.61125 37.2421667,19.6666667" stroke="#000000" stroke-width="2" stroke-linecap="round" stroke-linejoin="round"/><line x1="41.5" y1="22.125" x2="34.125" y2="34.8985" stroke="#000000" stroke-width="2" stroke-linecap="round" stroke-linejoin="round"/><path d="M0,47.6428374 C1.16277692,47.0646983 2.43727443,46.746074 3.7353195,46.7090075 C6.68888073,46.6471375 9.48331776,48.044356 11.2059585,50.444327 C12.9285992,52.844298 15.7230363,54.2415165 18.6765975,54.1796465 C21.6301587,54.2415165 24.4245958,52.844298 26.1472365,50.444327 C27.8698772,48.044356 30.6643143,46.6471375 33.6178755,46.7090075 C36.5714367,46.6471375 39.3658738,48.044356 41.0885145,50.444327 C42.8111552,52.844298 45.6055923,54.2415165 48.5591535,54.1796465 C51.5127147,54.2415165 54.3071518,52.844298 56.0297925,50.444327 C57.7524332,48.044356 60.5468703,46.6471375 63.5004315,46.7090075 C64.7984766,46.746074 66.0729741,47.0646983 67.235751,47.6428374" stroke="#000000" stroke-width="2" stroke-linecap="round" stroke-linejoin="round"/></g></g></g></g></svg>