<svg viewBox="0 0 80 80" version="1.1" xmlns="http://www.w3.org/2000/svg">
    <g stroke="none" stroke-width="1" fill="none" fill-rule="evenodd">
        <g transform="translate(-1205.000000, -2376.000000)">
            <g transform="translate(1205.000000, 2376.000000)">
                <circle stroke="#000000" stroke-width="2" cx="40" cy="40" r="39"></circle>
                <g transform="translate(16.945883, 1.809738)">
                    <g transform="translate(22.779820, 0.000000)">
                        <polyline fill="#FEFEFE" points="3.70154549 0 3.7137003 35.2660684 0.0129651331 35.2660684 0 0"></polyline>
                        <polyline stroke="#202020" stroke-width="2" points="3.70154549 0 3.7137003 35.2660684 0.0129651331 35.2660684 0 0"></polyline>
                    </g>
                    <line x1="46.5982278" y1="35.9161889" x2="49.1742377" y2="47.6739439" stroke="#202020" stroke-width="2"></line>
                    <line x1="2.80257558" y1="36.1451855" x2="46.4837295" y2="36.1451855" stroke="#202020" stroke-width="2"></line>
                    <line x1="0" y1="47.8253929" x2="2.54764865" y2="36.0676378" stroke="#202020" stroke-width="2"></line>
                    <line x1="5.33952799" y1="36.6758646" x2="3.50172038" y2="47.8607229" stroke="#202020" stroke-width="2"></line>
                    <line x1="7.88863521" y1="36.6758646" x2="7.17474257" y2="47.8607229" stroke="#202020" stroke-width="2"></line>
                    <line x1="10.8480079" y1="36.6758646" x2="10.4379855" y2="47.8607229" stroke="#202020" stroke-width="2"></line>
                    <line x1="13.9592346" y1="36.6758646" x2="13.5492123" y2="47.8607229" stroke="#202020" stroke-width="2"></line>
                    <line x1="17.0702993" y1="36.6758646" x2="16.660277" y2="47.8607229" stroke="#202020" stroke-width="2"></line>
                    <line x1="20.1815261" y1="36.6758646" x2="19.7715038" y2="47.8607229" stroke="#202020" stroke-width="2"></line>
                    <line x1="23.0875797" y1="36.6758646" x2="23.0875797" y2="47.8607229" stroke="#202020" stroke-width="2"></line>
                    <line x1="26.1987254" y1="36.6758646" x2="26.1987254" y2="47.8607229" stroke="#202020" stroke-width="2"></line>
                    <line x1="29.104779" y1="36.6758646" x2="29.5148013" y2="47.8607229" stroke="#202020" stroke-width="2"></line>
                    <line x1="32.2159247" y1="36.6758646" x2="32.625947" y2="47.8607229" stroke="#202020" stroke-width="2"></line>
                    <line x1="35.3272325" y1="36.6758646" x2="35.7372548" y2="47.8607229" stroke="#202020" stroke-width="2"></line>
                    <line x1="38.4382972" y1="36.6758646" x2="38.8483195" y2="47.8607229" stroke="#202020" stroke-width="2"></line>
                    <line x1="41.3975888" y1="36.6758646" x2="42.1114815" y2="47.8607229" stroke="#202020" stroke-width="2"></line>
                    <line x1="43.9466961" y1="36.6758646" x2="45.7845037" y2="47.8607229" stroke="#202020" stroke-width="2"></line>
                    <polygon fill="#FEFEFE" points="46.4556924 34.9144703 2.77453848 34.9144703 1.98204472 38.8315611 47.3040983 39.033331"></polygon>
                    <polygon stroke="#202020" stroke-width="2" points="46.4556924 34.9144703 2.77453848 34.9144703 1.98204472 38.8315611 47.3040983 39.033331"></polygon>
                </g>
            </g>
        </g>
    </g>
</svg>