<svg viewBox="0 0 24 24" version="1.1" xmlns="http://www.w3.org/2000/svg" xmlns:xlink="http://www.w3.org/1999/xlink"><g stroke="none" stroke-width="1" fill="none" fill-rule="evenodd"><g transform="translate(-226.000000, -1063.000000)"><g transform="translate(226.000000, 1063.000000)"><polygon points="0 0 24 0 24 24 0 24"/><path d="M14,3 L14,7 C14,7.55228475 14.4477153,8 15,8 L19,8" stroke="#000000" stroke-width="2" stroke-linecap="round" stroke-linejoin="round"/><path d="M17,21 L7,21 C5.8954305,21 5,20.1045695 5,19 L5,5 C5,3.8954305 5.8954305,3 7,3 L14,3 L19,8 L19,19 C19,20.1045695 18.1045695,21 17,21 Z" id="Path" stroke="#000000" stroke-width="2" stroke-linecap="round" stroke-linejoin="round"/><line x1="9" y1="7" x2="10" y2="7" id="Path" stroke="#000000" stroke-width="2" stroke-linecap="round" stroke-linejoin="round"/><line x1="9" y1="13" x2="15" y2="13" id="Path" stroke="#000000" stroke-width="2" stroke-linecap="round" stroke-linejoin="round"/><line x1="13" y1="17" x2="15" y2="17" id="Path" stroke="#000000" stroke-width="2" stroke-linecap="round" stroke-linejoin="round"/></g></g></g></svg>