<svg viewBox="0 0 80 80" version="1.1" xmlns="http://www.w3.org/2000/svg"><g stroke="none" stroke-width="1" fill="none" fill-rule="evenodd"><g transform="translate(-980.000000, -2124.000000)"><g transform="translate(980.000000, 2124.000000)"><g stroke="#000000" stroke-width="2"><circle id="Oval" cx="40" cy="40" r="39"/></g><g transform="translate(16.000000, 16.000000)"><polygon id="Path" points="0 0 24 0 24 24 0 24"/><line x1="12" y1="5" x2="12" y2="19" id="Path" stroke="#000000" stroke-width="2" stroke-linecap="round" stroke-linejoin="round"/><line x1="5" y1="12" x2="19" y2="12" id="Path" stroke="#000000" stroke-width="2" stroke-linecap="round" stroke-linejoin="round"/></g><g transform="translate(26.000000, 46.000000)"><polygon id="Path" points="0 0 18 0 18 18 0 18"/><line x1="9" y1="3.75" x2="9" y2="14.25" id="Path" stroke="#000000" stroke-width="2" stroke-linecap="round" stroke-linejoin="round"/><line x1="3.75" y1="9" x2="14.25" y2="9" id="Path" stroke="#000000" stroke-width="2" stroke-linecap="round" stroke-linejoin="round"/></g><g transform="translate(38.000000, 23.000000)"><polygon id="Path" points="0 0 34 0 34 34 0 34"/><line x1="17" y1="7.08333333" x2="17" y2="26.9166667" id="Path" stroke="#000000" stroke-width="2" stroke-linecap="round" stroke-linejoin="round"/><line x1="7.08333333" y1="17" x2="26.9166667" y2="17" id="Path" stroke="#000000" stroke-width="2" stroke-linecap="round" stroke-linejoin="round"/></g></g></g></g></svg>