<svg width="19" height="19" viewBox="0 0 19 19" fill="none" xmlns="http://www.w3.org/2000/svg">
<path d="M9.48731 4.57017C6.79569 4.57017 4.62463 6.71764 4.62463 9.38C4.62463 12.0424 6.79569 14.1898 9.48731 14.1898C12.1789 14.1898 14.35 12.0424 14.35 9.38C14.35 6.71764 12.1789 4.57017 9.48731 4.57017ZM9.48731 12.507C7.74792 12.507 6.32593 11.1047 6.32593 9.38C6.32593 7.65533 7.74368 6.25299 9.48731 6.25299C11.2309 6.25299 12.6487 7.65533 12.6487 9.38C12.6487 11.1047 11.2267 12.507 9.48731 12.507ZM15.6831 4.37343C15.6831 4.99716 15.1753 5.4953 14.5489 5.4953C13.9183 5.4953 13.4147 4.99297 13.4147 4.37343C13.4147 3.75388 13.9226 3.25155 14.5489 3.25155C15.1753 3.25155 15.6831 3.75388 15.6831 4.37343ZM18.9037 5.51205C18.8318 4.00924 18.4848 2.67806 17.3717 1.5813C16.2629 0.484541 14.9171 0.141281 13.3978 0.0659311C11.8319 -0.021977 7.13849 -0.021977 5.57262 0.0659311C4.05753 0.137095 2.71172 0.480355 1.59868 1.57711C0.485634 2.67387 0.142833 4.00505 0.0666556 5.50786C-0.0222185 7.05672 -0.0222185 11.6991 0.0666556 13.248C0.138601 14.7508 0.485634 16.0819 1.59868 17.1787C2.71172 18.2755 4.05329 18.6187 5.57262 18.6941C7.13849 18.782 11.8319 18.782 13.3978 18.6941C14.9171 18.6229 16.2629 18.2796 17.3717 17.1787C18.4805 16.0819 18.8276 14.7508 18.9037 13.248C18.9926 11.6991 18.9926 7.0609 18.9037 5.51205ZM16.8808 14.9098C16.5507 15.7303 15.9116 16.3624 15.0779 16.6931C13.8294 17.1829 10.867 17.0699 9.48731 17.0699C8.10765 17.0699 5.14094 17.1787 3.89671 16.6931C3.06721 16.3666 2.42817 15.7345 2.09383 14.9098C1.59868 13.6749 1.71294 10.7447 1.71294 9.38C1.71294 8.01533 1.60291 5.08088 2.09383 3.85016C2.42394 3.02969 3.06298 2.39759 3.89671 2.06689C5.14517 1.57711 8.10765 1.69014 9.48731 1.69014C10.867 1.69014 13.8337 1.5813 15.0779 2.06689C15.9074 2.3934 16.5465 3.0255 16.8808 3.85016C17.3759 5.08506 17.2617 8.01533 17.2617 9.38C17.2617 10.7447 17.3759 13.6791 16.8808 14.9098Z" fill="white"></path>
</svg>