<svg viewBox="0 0 105 105" version="1.1" xmlns="http://www.w3.org/2000/svg" xmlns:xlink="http://www.w3.org/1999/xlink">
    <defs>
        <polygon id="path-1" points="8.0741745e-15 1.6148349e-14 6.66037794 1.6148349e-14 6.66037794 9.07446267 8.0741745e-15 9.07446267"></polygon>
        <polygon id="path-3" points="0 8.0741745e-15 8.91503431 8.0741745e-15 8.91503431 6.3453172 0 6.3453172"></polygon>
        <polygon id="path-5" points="0 -8.0741745e-15 9.47024956 -8.0741745e-15 9.47024956 9.38116058 0 9.38116058"></polygon>
        <polygon id="path-7" points="0 0 8.79151425 0 8.79151425 6.32713578 0 6.32713578"></polygon>
    </defs>
    <g stroke="none" stroke-width="1" fill="none" fill-rule="evenodd">
        <g transform="translate(-747.000000, -743.000000)">
            <g transform="translate(747.000000, 743.000000)">
                <path d="M47.5503344,4.97830134 L49.2832514,4.84875868 C50.2798208,4.77489665 50.7332201,4.13059241 50.6434493,2.91811866 C50.6002684,2.33631307 50.447999,1.92154932 50.186641,1.67382741 C49.9264193,1.4261055 49.5389277,1.32042596 49.0230298,1.35906149 L47.2901128,1.48860414 L47.5503344,4.97830134 Z M49.3843856,6.04418736 L47.6401052,6.17486634 L47.8366918,8.83049068 L46.4537672,8.9327612 L45.8174174,0.394309647 L48.9468951,0.161360144 C50.8832168,0.0170450856 51.9218307,0.901116859 52.0650094,2.81243912 C52.1377351,3.79309972 51.9502392,4.55899223 51.5025216,5.11011666 C51.054804,5.66237744 50.3480011,5.972598 49.3843856,6.04418736 L49.3843856,6.04418736 Z" id="Fill-1" fill="#FFFFFF"></path>
                <g transform="translate(53.519751, 0.000000)">
                    <mask id="scrolldown-mask-2" fill="white">
                        <use xlink:href="#path-1"></use>
                    </mask>
                    <g id="Clip-4"></g>
                    <path d="M5.22147789,3.14504556 C5.31238501,2.1246131 4.86694011,1.57007965 3.8885522,1.48371788 L2.03291054,1.31894872 L1.7579165,4.41888163 L3.63742127,4.58592346 C4.13513777,4.63024069 4.51353867,4.51887946 4.77148763,4.25297613 C5.02943659,3.98707279 5.17943335,3.61889894 5.22147789,3.14504556 L5.22147789,3.14504556 Z M1.65110063,5.61317396 L1.38178827,8.65174455 L8.0741745e-15,8.52901993 L0.756801801,-0.000340901712 L3.99423173,0.287152875 C5.9203264,0.458740071 6.8021255,1.44849137 6.64190169,3.25867947 C6.53394948,4.47115322 5.99646112,5.25181814 5.02830025,5.59953789 L6.13736716,9.07446267 L4.6192182,8.93923833 L3.65673903,5.79157919 L1.65110063,5.61317396 Z" id="Fill-3" fill="#FFFFFF" mask="url(#scrolldown-mask-2)"></path>
                </g>
                <path d="M62.7688686,7.93846454 C62.91432,8.48617995 63.373401,8.86458085 64.1461116,9.0725309 C64.9188221,9.28048094 65.5029004,9.18730114 65.89721,8.79299149 C66.292656,8.39868185 66.6381031,7.6521071 66.9335512,6.55326725 C67.2289994,5.45556373 67.3051341,4.6192182 67.1619554,4.04536698 C67.0176403,3.47265211 66.5676501,3.08402416 65.8119846,2.88061947 C65.0551828,2.67721478 64.4688318,2.78630333 64.0529318,3.21015779 C63.6370317,3.63287591 63.2836302,4.38967771 62.9893184,5.48056319 C62.6972793,6.57031233 62.6234172,7.39074912 62.7688686,7.93846454 M66.7176468,9.93160321 C66.0403887,10.4747733 65.0790459,10.5793165 63.8313456,10.2429601 C62.5836454,9.90774009 61.8018441,9.33388888 61.4870782,8.51913378 C61.1700396,7.70437869 61.2075388,6.56917599 61.5995758,5.11352568 C61.9916127,3.65673903 62.5336465,2.64198827 63.2279496,2.06813705 C63.9211164,1.49655852 64.8870046,1.37610658 66.1267505,1.70905392 C67.3653601,2.04313759 68.1403433,2.6283522 68.4505638,3.46697041 C68.7596481,4.30558862 68.7176035,5.45670007 68.3232939,6.92030476 C67.9301206,8.38618212 67.3937685,9.38956949 66.7176468,9.93160321" id="Fill-6" fill="#FFFFFF"></path>
                <polygon id="Fill-8" fill="#FFFFFF" points="70.9945997 4.63989957 71.4945889 3.53537802 76.6183416 5.85691868 76.0672172 7.07507413 70.0628017 10.694314 69.9650765 10.9113547 73.5854527 12.551092 73.0854635 13.6556135 67.9617108 11.3340729 68.5082899 10.1272808 74.5002056 6.50235926 74.6036125 6.27509145"></polygon>
                <polygon id="Fill-10" fill="#FFFFFF" points="75.3218924 15.0184249 74.1605539 14.2604868 78.8411344 7.09018744 80.0024729 7.84812558 77.891155 11.0832828 79.0138579 11.6957696 82.5353726 9.50263522 83.8648893 10.3707983 79.7456603 12.8161999 79.2570345 17.5876875 77.9070637 16.7058884 78.3434179 12.7218837 77.2286693 12.0980336"></polygon>
                <path d="M82.1509491,17.7393888 C82.0270882,18.2927859 82.2589013,18.8405013 82.8475249,19.3813987 C83.4361486,19.9234324 83.9975001,20.1109283 84.5304431,19.9438865 C85.0622497,19.7768447 85.7145083,19.2757191 86.4838099,18.4382373 C87.2542477,17.6007554 87.7087834,16.8950889 87.8462804,16.3201013 C87.9849137,15.7451137 87.7656003,15.192853 87.1894764,14.6621826 C86.6122162,14.1326486 86.041774,13.9587888 85.4770135,14.140603 C84.9133893,14.3246899 84.248631,14.8303608 83.4838748,15.662161 C82.7191186,16.4928248 82.2748101,17.1859916 82.1509491,17.7393888 M84.7293024,21.3336291 C83.8793208,21.5018073 82.9782039,21.1484059 82.0270882,20.2745612 C81.0759724,19.3995801 80.6487089,18.5291444 80.7452977,17.6609814 C80.8418865,16.7928183 81.4009653,15.803067 82.4225341,14.6940001 C83.4429666,13.5837969 84.3940824,12.9349473 85.2736088,12.7474514 C86.1531352,12.5599554 87.0656155,12.9019935 88.0099132,13.7701565 C88.9542109,14.6383195 89.370111,15.5167096 89.2564771,16.403054 C89.1428432,17.2893985 88.572401,18.2905132 87.5462869,19.4063981 C86.5190364,20.5234194 85.5804203,21.165451 84.7293024,21.3336291" id="Fill-12" fill="#FFFFFF"></path>
                <path d="M88.4791076,22.8762094 C87.5973085,23.5466494 87.5086741,24.3466321 88.2154769,25.2750211 C88.9222798,26.2034101 89.7154445,26.3329527 90.5983799,25.6613764 L95.2335069,22.13418 L96.0812158,23.2489286 L91.4654066,26.7602162 C90.6631512,27.3715666 89.9177128,27.6056525 89.2290914,27.4647464 C88.5404699,27.3238404 87.8802569,26.8363509 87.2473161,26.0045508 C86.6132389,25.1727506 86.3223361,24.4068581 86.372335,23.7091459 C86.4223339,23.0114337 86.8484611,22.3569024 87.6507164,21.7466884 L92.2665256,18.2354007 L93.1153709,19.349013 L88.4791076,22.8762094 Z" id="Fill-14" fill="#FFFFFF"></path>
                <polygon id="Fill-16" fill="#FFFFFF" points="90.1553213 29.6553808 97.8801541 25.962279 98.9199043 28.1383682 93.7120625 32.7484957 100.571005 31.5894299 101.616437 33.7768825 93.8916041 37.4699844 93.2870717 36.2075117 99.6255709 33.1768955 99.5448908 33.007581 92.6484492 34.059831 92.0234627 32.7519047 97.1722149 28.0451884 97.0915348 27.8770102 90.7530356 30.9076265"></polygon>
                <path d="M102.055746,39.5750525 L97.5899331,39.6057336 L98.2603732,42.2602216 L102.209151,40.1807212 L102.055746,39.5750525 Z M94.1013723,38.2955347 L102.919363,38.2489448 L103.595485,40.9261596 L95.8138352,45.0817515 L95.4706608,43.7249627 L97.1388065,42.8261185 L96.3354148,39.6386875 L94.4400013,39.6398238 L94.1013723,38.2955347 Z" id="Fill-18" fill="#FFFFFF"></path>
                <g id="Group-22" transform="translate(95.969059, 43.779507)">
                    <mask id="scrolldown-mask-4" fill="white">
                        <use xlink:href="#path-3"></use>
                    </mask>
                    <g id="Clip-21"></g>
                    <polygon id="Fill-20" fill="#FFFFFF" mask="url(#scrolldown-mask-4)" points="7.02825696 0.129542651 8.25891214 8.0741745e-15 8.91571611 6.21463821 7.68506093 6.3453172 7.43052098 3.94536915 0.146587736 4.71467068 0 3.32265535 7.28393325 2.55335382"></polygon>
                </g>
                <path d="M95.5600907,72.9150127 L94.7703351,74.4627064 C94.3157994,75.3535962 94.6305654,76.0751715 95.7146328,76.6285686 C96.2339397,76.8933356 96.6668849,76.9785611 97.0146047,76.8842449 C97.3623244,76.7910651 97.6532272,76.5137984 97.887313,76.0535811 L98.678205,74.5058873 L95.5600907,72.9150127 Z M93.6953583,73.9286271 L94.491932,72.3695699 L92.1203924,71.1593688 L92.7499242,69.923032 L100.377032,73.8149932 L98.9509264,76.6092509 C98.0691273,78.3387589 96.7737008,78.7682951 95.0669195,77.896723 C94.1908021,77.4501418 93.633996,76.8921993 93.3953648,76.2228956 C93.1555973,75.5535919 93.2567315,74.7888357 93.6953583,73.9286271 L93.6953583,73.9286271 Z" id="Fill-23" fill="#FFFFFF"></path>
                <path d="M91.3215461,83.4001266 C92.1465282,84.0092043 92.8499221,83.9182972 93.4340003,83.1274053 L94.5407946,81.6285741 L92.0374397,79.7797504 L90.915873,81.2978994 C90.6192885,81.7001634 90.517018,82.080837 90.6101978,82.4387838 C90.7022413,82.7978669 90.9397362,83.1183145 91.3215461,83.4001266 L91.3215461,83.4001266 Z M91.0726878,79.0672659 L88.6193318,77.2548051 L89.4431776,76.1389202 L96.3305286,81.22631 L94.3998885,83.8398898 C93.2510498,85.395538 91.9465325,85.6330328 90.4852005,84.5546471 C89.5056763,83.8307991 89.1204573,82.9660451 89.3261347,81.956976 L85.7818932,81.095631 L86.6875555,79.8695212 L89.8772592,80.6854127 L91.0726878,79.0672659 Z" id="Fill-25" fill="#FFFFFF"></path>
                <path d="M85.1222484,84.3566968 C84.577942,84.196473 84.0154542,84.3919233 83.4370576,84.9441841 C82.8575247,85.4964449 82.6348023,86.043024 82.7654813,86.586194 C82.8972966,87.1282277 83.3552412,87.8111675 84.1404515,88.6350133 C84.9256618,89.4577228 85.5995108,89.957712 86.1642713,90.1327082 C86.7290318,90.3088407 87.2949287,90.1258901 87.8619619,89.5861291 C88.428995,89.0440954 88.6392178,88.4872892 88.4937664,87.9111653 C88.348315,87.3361778 87.8869613,86.6407383 87.1074327,85.8237105 C86.3279042,85.0055464 85.6665548,84.5169206 85.1222484,84.3566968 M81.3666479,86.6941462 C81.2541503,85.8339376 81.6655051,84.9578202 82.6007121,84.0669304 C83.5359191,83.1749042 84.4324906,82.8067304 85.2926993,82.9601361 C86.1529079,83.1124056 87.1028874,83.7351194 88.1437739,84.8271412 C89.1846605,85.9180267 89.7687388,86.9089143 89.8982814,87.7998041 C90.0266877,88.6895576 89.6278327,89.5770384 88.6983074,90.4633828 C87.7699184,91.3485909 86.8665289,91.7054014 85.9904115,91.5338142 C85.1131577,91.3633633 84.1506786,90.7281498 83.1041103,89.6315826 C82.057542,88.5327428 81.4780091,87.5543549 81.3666479,86.6941462" id="Fill-27" fill="#FFFFFF"></path>
                <polygon id="Fill-29" fill="#FFFFFF" points="83.6512575 93.1123028 84.33647 94.1122811 79.694525 97.2894851 78.9388595 96.1860999 78.957041 89.174888 78.822953 88.9794377 75.5423422 91.2237073 74.8582661 90.2237289 79.500211 87.046525 80.2479221 88.1408195 80.2399677 95.144077 80.3808738 95.3497543"></polygon>
                <polygon id="Fill-31" fill="#FFFFFF" points="72.5409299 91.4277938 73.7920391 90.8278068 77.4965044 98.5469579 76.2465315 99.1469449 74.5749767 95.6652021 73.4681825 96.3060973 73.5193178 100.456007 72.0875306 101.142356 72.1318478 96.3515508 68.3035216 93.4618407 69.7580355 92.7641285 72.9386485 95.2027121 74.0499881 94.5720439"></polygon>
                <path d="M66.7138969,95.8405392 C66.3048148,95.4462295 65.7161912,95.3610041 64.948026,95.5825902 C64.1798608,95.8053127 63.7287342,96.1871226 63.5946462,96.7291563 C63.4605582,97.27119 63.5514653,98.0882178 63.8673676,99.1802396 C64.1821335,100.273398 64.5503074,101.027927 64.9707528,101.444963 C65.3900619,101.860863 65.9764128,101.960861 66.7286693,101.742684 C67.4809257,101.525643 67.9252343,101.127925 68.0627313,100.551801 C68.199092,99.9734043 68.1104576,99.1427404 67.796828,98.0575366 C67.4831984,96.9734692 67.1229789,96.2337125 66.7138969,95.8405392 M62.3037651,96.1780319 C62.6014859,95.3644131 63.3707874,94.7769258 64.6116697,94.418979 C65.8525519,94.0598959 66.8184401,94.1462577 67.5104706,94.680337 C68.202501,95.2121437 68.7570345,96.2041677 69.1763436,97.6529999 C69.5956527,99.1018322 69.6558787,100.250671 69.3592942,101.099516 C69.0627097,101.948362 68.2979535,102.551758 67.0650256,102.908568 C65.8332341,103.264242 64.8673459,103.164244 64.1673611,102.607438 C63.4696489,102.049496 62.9082974,101.042699 62.487852,99.5859126 C62.0662702,98.129126 62.0049079,96.992787 62.3037651,96.1780319" id="Fill-33" fill="#FFFFFF"></path>
                <path d="M59.0269042,98.5792299 C58.9132703,97.476981 58.2769204,96.9860826 57.1155819,97.1053982 C55.9553798,97.2247138 55.4315275,97.8360642 55.5462977,98.938313 L56.1428757,104.732506 L54.7508604,104.876821 L54.1554187,99.1064912 C54.0520119,98.1042402 54.2406441,97.3451657 54.7190429,96.8304041 C55.1974416,96.3167789 55.9576524,96.005422 56.9974027,95.8986061 C58.0382892,95.7906539 58.8428173,95.9406506 59.4121231,96.34746 C59.9825653,96.753133 60.3189217,97.4576633 60.4223285,98.4610506 L61.0166338,104.230244 L59.6246185,104.373423 L59.0269042,98.5792299 Z" id="Fill-35" fill="#FFFFFF"></path>
                <g id="Group-39" transform="translate(42.876231, 95.618839)">
                    <mask id="scrolldown-mask-6" fill="white">
                        <use xlink:href="#path-5"></use>
                    </mask>
                    <g id="Clip-38"></g>
                    <polygon id="Fill-37" fill="#FFFFFF" mask="url(#scrolldown-mask-6)" points="9.47024956 0.861344993 8.61799528 9.38161512 6.21804723 9.14184758 4.98057401 2.2965412 2.41244778 8.761174 0 8.51913378 0.851117941 -8.0741745e-15 2.2442696 0.138633363 1.54542109 7.12939114 1.7317807 7.14757256 4.41013182 0.706802883 5.8532824 0.851117941 7.20438952 7.69528798 7.39074912 7.71346941 8.08959763 0.72271163"></polygon>
                </g>
                <path d="M37.7045248,101.512803 L39.9919753,97.6776585 L37.3749865,96.8742668 L37.1068105,101.329852 L37.7045248,101.512803 Z M42.9214573,95.3731629 L38.3908736,102.938908 L35.7500216,102.128699 L36.2295567,93.3209346 L37.5681641,93.731153 L37.4715753,95.6231575 L40.6146891,96.5879094 L41.5953497,94.9663535 L42.9214573,95.3731629 Z" id="Fill-40" fill="#FFFFFF"></path>
                <polygon id="Fill-42" fill="#FFFFFF" points="33.4854116 100.06238 32.9581503 101.181674 27.3048635 98.5158222 27.8321248 97.3965282 30.0150321 98.4260514 33.1388282 91.8000584 34.4058462 92.3977728 31.2809138 99.0226294"></polygon>
                <path d="M14.2208286,80.9815426 L13.2197139,79.5622551 C12.6424536,78.7452274 11.8572433,78.6872741 10.8629467,79.3883953 C10.3868206,79.7247516 10.1095539,80.067926 10.0300102,80.4190548 C9.95273912,80.7701835 10.0618277,81.1576752 10.3595485,81.5792569 L11.3606632,82.9996807 L14.2208286,80.9815426 Z M14.1924201,78.8599976 L15.2014891,80.2906485 L17.3775784,78.7554544 L18.1764248,79.8895208 L11.1811216,84.8246412 L9.37206987,82.2610604 C8.25277591,80.6747311 8.47549837,79.3281693 10.0425099,78.2236478 C10.8459016,77.6577509 11.5992944,77.4236651 12.3026883,77.5247992 C13.0060821,77.6247971 13.6356139,78.070242 14.1924201,78.8599976 L14.1924201,78.8599976 Z" id="Fill-44" fill="#FFFFFF"></path>
                <path d="M6.89735071,72.3030941 C5.97350707,72.748539 5.72578516,73.4132973 6.1519123,74.2996418 L6.96098569,75.9768782 L9.76433411,74.6257711 L8.94503366,72.9258079 C8.7279929,72.4746813 8.43936278,72.2076416 8.07914331,72.1224162 C7.71892383,72.0371908 7.32461419,72.0974167 6.89735071,72.3030941 L6.89735071,72.3030941 Z M10.8461289,74.1053278 L13.5937967,72.7814928 L14.19492,74.0314658 L6.48145062,77.7484308 L5.07125387,74.8200851 C4.23263566,73.0792137 4.63035432,71.813332 6.26781888,71.0247127 C7.36324971,70.496315 8.30982013,70.5588137 9.10412112,71.2122086 L11.5199779,68.4793132 L12.1824636,69.8531471 L9.97228415,72.292867 L10.8461289,74.1053278 Z" id="Fill-46" fill="#FFFFFF"></path>
                <path d="M8.95639705,66.3960629 C9.35297937,65.9903898 9.44275016,65.4017662 9.2257094,64.6324647 C9.00866864,63.8620268 8.63026774,63.4086275 8.08937036,63.2711305 C7.54847298,63.1324971 6.73144521,63.2177226 5.63601437,63.5268068 C4.54058354,63.8347547 3.78378174,64.1961105 3.36447263,64.6131469 C2.94516352,65.0301833 2.84175667,65.6153979 3.05311573,66.3699271 C3.26561113,67.1233198 3.65992078,67.5710374 4.23604467,67.7119435 C4.81330491,67.8528495 5.64396875,67.7698968 6.73144521,67.4642216 C7.81892167,67.15741 8.55981472,66.8017359 8.95639705,66.3960629 M8.64844917,61.9836584 C9.46206792,62.2870609 10.0438735,63.0597714 10.3927296,64.3040627 C10.742722,65.5472176 10.6495422,66.5131058 10.1120539,67.2005909 C9.57342915,67.8892124 8.57799615,68.4369278 7.12689119,68.8460098 C5.6746499,69.2550919 4.52581113,69.3084998 3.67810221,69.0050973 C2.83152962,68.7028311 2.23381529,67.9335296 1.88609554,66.698329 C1.53837579,65.4631285 1.64519166,64.4983767 2.20767949,63.8029372 C2.77016731,63.1074977 3.78037272,62.5552369 5.24056839,62.1438822 C6.70076405,61.7325274 7.83710309,61.6802558 8.64844917,61.9836584" id="Fill-48" fill="#FFFFFF"></path>
                <polygon id="Fill-50" fill="#FFFFFF" points="1.91529945 61.0212928 0.709643731 61.1565172 0.0801119023 55.5680018 1.40962858 55.418005 7.59358564 58.7213426 7.82880782 58.6940705 7.38336291 54.744156 8.58901864 54.6077953 9.21855046 60.197447 7.90266986 60.3463074 1.71984914 57.0554696 1.47099089 57.0838781"></polygon>
                <g transform="translate(0.000000, 47.036936)">
                    <mask id="scrolldown-mask-8" fill="white">
                        <use xlink:href="#path-7"></use>
                    </mask>
                    <g></g>
                    <polygon id="Fill-52" fill="#FFFFFF" mask="url(#scrolldown-mask-8)" points="8.60970001 4.94080215 8.55629207 6.32713578 -0.000340901712 5.99532478 0.0542033722 4.60899115 3.91321075 4.75785156 3.86321184 3.48060648 0.171246293 1.5863293 0.232608602 0 4.4472901 2.27722344 8.79151425 0.244312894 8.72901561 1.85564165 5.08704898 3.52833272 5.12454817 4.8055778"></polygon>
                </g>
                <path d="M7.43222549,44.7296 C7.9708502,44.5523311 8.32197896,44.0705234 8.48333911,43.2875858 C8.64583559,42.5046482 8.51856562,41.9273879 8.10152919,41.5558051 C7.6856291,41.1842222 6.91973659,40.8830924 5.80612433,40.6524155 C4.69251207,40.4217387 3.85389386,40.3956029 3.28913335,40.5717355 C2.72437285,40.7490044 2.36415337,41.2205851 2.20392957,41.9876139 C2.04597844,42.7546428 2.1902935,43.3330393 2.63687474,43.72394 C3.08345599,44.1137042 3.85957555,44.4239248 4.96523344,44.652329 C6.07089132,44.8818694 6.89360079,44.9068689 7.43222549,44.7296 M9.19127833,40.670597 C9.77308392,41.3149012 9.93330772,42.2682896 9.6708134,43.5341713 C9.40945542,44.7989167 8.88105777,45.6125354 8.08675678,45.9761639 C7.29245579,46.3386561 6.15725309,46.3670646 4.68001234,46.0613894 C3.20277159,45.7557142 2.15847601,45.2739064 1.54598926,44.6148298 C0.933502522,43.9557531 0.75736997,42.9989557 1.01759161,41.7421647 C1.27781325,40.4853737 1.81757429,39.6774366 2.6357384,39.3194898 C3.45503885,38.961543 4.6061503,38.9365436 6.09134543,39.2433551 C7.57654055,39.551303 8.61060908,40.0274291 9.19127833,40.670597" id="Fill-55" fill="#FFFFFF"></path>
                <path d="M8.59685938,36.6570475 C9.62410987,37.0718112 10.3570485,36.7377275 10.7934027,35.6559328 C11.2286206,34.574138 10.9331724,33.8252906 9.90592195,33.4116632 L4.50262981,31.2333012 L5.02648211,29.9344657 L10.4059111,32.1037369 C11.3411182,32.4798652 11.9240601,33.0003084 12.1547369,33.6639304 C12.3854137,34.3286888 12.30587,35.1445802 11.9149694,36.1150137 C11.5240687,37.0843109 11.0161252,37.7263425 10.3911387,38.0411084 C9.76501591,38.354738 8.98548733,38.3229205 8.0502803,37.9456559 L2.67085128,35.777521 L3.19470358,34.4786855 L8.59685938,36.6570475 Z" id="Fill-57" fill="#FFFFFF"></path>
                <polygon id="Fill-59" fill="#FFFFFF" points="13.5644791 31.7505628 6.44076968 26.9995292 7.77937707 24.9927545 14.4042337 27.1120268 9.9020584 21.8110052 11.2474838 19.7940034 18.3700569 24.5439006 17.5939374 25.7086481 11.7497457 21.8110052 11.6463388 21.96782 16.0746521 27.3552034 15.270124 28.5619954 8.59413216 26.5427209 8.49072531 26.6983994 14.334917 30.5960423"></polygon>
                <path d="M15.9869267,16.4587347 L18.3061947,20.2745612 L20.2402437,18.3382394 L16.4289626,16.0166988 L15.9869267,16.4587347 Z M18.970953,23.9426636 L14.4051427,16.3973724 L16.3573732,14.4428692 L23.9174369,18.9893617 L22.9276855,19.9802493 L21.300448,19.0086795 L18.977771,21.3359018 L19.9516136,22.9608666 L18.970953,23.9426636 Z" id="Fill-61" fill="#FFFFFF"></path>
                <polygon id="Fill-63" fill="#FFFFFF" points="19.2251521 13.422664 18.48085 12.434049 23.4750601 8.67617584 24.2193621 9.66479081 22.2909948 11.1147594 26.6954449 16.9680418 25.5772873 17.8089327 21.1728372 11.9567866"></polygon>
                <path d="M100.618958,59.3241705 C100.618958,60.3025584 99.8257938,61.0945867 98.8485422,61.0945867 C97.8701543,61.0945867 97.0769897,60.3025584 97.0769897,59.3241705 C97.0769897,58.3457826 97.8701543,57.5537542 98.8485422,57.5537542 C99.8257938,57.5537542 100.618958,58.3457826 100.618958,59.3241705" id="Fill-65" fill="#FFFFFF"></path>
                <path d="M24.2151577,88.4553581 C24.2151577,89.433746 23.421993,90.2257743 22.4447415,90.2257743 C21.4663535,90.2257743 20.6731889,89.433746 20.6731889,88.4553581 C20.6731889,87.4769702 21.4663535,86.6849419 22.4447415,86.6849419 C23.421993,86.6849419 24.2151577,87.4769702 24.2151577,88.4553581" id="Fill-67" fill="#FFFFFF"></path>
                <path d="M36.4060302,9.06673557 C36.4060302,10.0451235 35.6128655,10.8371518 34.6356139,10.8371518 C33.657226,10.8371518 32.8640614,10.0451235 32.8640614,9.06673557 C32.8640614,8.08834765 33.657226,7.29631934 34.6356139,7.29631934 C35.6128655,7.29631934 36.4060302,8.08834765 36.4060302,9.06673557" id="Fill-69" fill="#FFFFFF"></path>
            </g>
        </g>
    </g>
</svg>