<svg width="461px" height="87px" viewBox="0 0 461 87" version="1.1" xmlns="http://www.w3.org/2000/svg" xmlns:xlink="http://www.w3.org/1999/xlink">
    <title>logo-long</title>
    <g id="Page-1" stroke="none" stroke-width="1" fill="none" fill-rule="evenodd">
        <g id="logo-long" transform="translate(0.000000, 0.005826)" fill="#fff" fill-rule="nonzero">
            <g id="g8" transform="translate(230.125994, 43.183819) scale(-1, 1) rotate(-180.000000) translate(-230.125994, -43.183819) translate(0.000000, 0.000000)">
                <g id="g10" transform="translate(0.000000, -0.000000)">
                    <path d="M144.67333,48.337064 C137.223997,49.0198639 135.611997,49.7011973 135.611997,51.9355972 C135.611997,54.2959971 138.466663,55.4761304 143.867996,55.4761304 C149.082663,55.4761304 153.799996,54.1719971 157.771996,51.5027972 L161.681329,60.0069303 C156.717329,63.2959969 150.44533,65.0345302 143.122663,65.0345302 C130.770263,65.0345302 123.50733,60.0069303 123.50733,51.5027972 C123.50733,42.6875974 128.161997,39.3985308 142.562663,38.0313309 C150.075996,37.3490642 151.687996,36.6667976 151.687996,34.494931 C151.687996,32.0730644 148.894663,30.8949311 143.059996,30.8949311 C136.48133,30.8949311 130.583864,32.631331 125.679197,35.9845309 L121.583864,27.1069312 C127.168797,23.3203979 134.494663,21.3334646 143.43333,21.3334646 C156.839996,21.3334646 163.793329,25.9897312 163.793329,34.9298643 C163.793329,43.6807974 159.075996,47.033464 144.67333,48.337064" id="path12"></path>
                    <path d="M204.335995,45.2949307 L193.967995,45.2949307 L193.967995,54.3574638 L204.335995,54.3574638 C208.369328,54.3574638 210.169328,52.9922638 210.169328,49.8266639 C210.169328,46.723064 208.369328,45.2949307 204.335995,45.2949307 M205.762662,64.2897302 L182.051995,64.2897302 L182.051995,22.0782646 L193.967995,22.0782646 L193.967995,35.362131 L205.762662,35.362131 C216.625328,35.362131 222.335994,40.3922642 222.335994,49.8266639 C222.335994,59.3230637 216.625328,64.2897302 205.762662,64.2897302" id="path14"></path>
                    <path d="M258.269327,31.7006644 C251.563994,31.7006644 247.095994,36.2943976 247.095994,43.1850641 C247.095994,50.0755972 251.563994,54.6673305 258.269327,54.6673305 C265.033327,54.6673305 269.50266,50.0755972 269.50266,43.1850641 C269.50266,36.2943976 265.033327,31.7006644 258.269327,31.7006644 M258.269327,65.0345302 C244.177327,65.0345302 234.929327,56.4047971 234.929327,43.1850641 C234.929327,29.9637311 244.177327,21.3334646 258.269327,21.3334646 C272.421327,21.3334646 281.609326,29.9637311 281.609326,43.1850641 C281.609326,56.4047971 272.421327,65.0345302 258.269327,65.0345302" id="path16"></path>
                    <polyline id="path18" points="343.585325 64.2897302 328.314658 64.2897302 310.499992 46.3511973 310.499992 64.2897302 298.582659 64.2897302 298.582659 22.0782646 310.499992 22.0782646 310.499992 32.382931 318.195992 39.7698642 330.111992 22.0782646 344.205325 22.0782646 326.762658 48.026664 343.585325 64.2897302"></polyline>
                    <path d="M372.590657,39.0261309 L377.617324,52.8678638 L382.582657,39.0261309 L372.590657,39.0261309 Z M371.781324,64.2897302 L353.721324,22.0782646 L365.947991,22.0782646 L369.051991,30.0261311 L386.121324,30.0261311 L389.226657,22.0782646 L402.073323,22.0782646 L384.010657,64.2897302 L371.781324,64.2897302" id="path20"></path>
                    <path d="M440.822656,46.3511973 L429.214656,46.3511973 L429.214656,54.5443971 L440.822656,54.5443971 C444.423989,54.5443971 446.098656,53.2402638 446.098656,50.4474639 C446.098656,47.6537306 444.423989,46.3511973 440.822656,46.3511973 M449.885322,37.7214642 C455.347989,39.5834642 458.203989,43.8689307 458.203989,50.4474639 C458.203989,59.509997 452.803989,64.2897302 442.437322,64.2897302 L417.294656,64.2897302 L417.294656,22.0782646 L429.214656,22.0782646 L429.214656,36.6667976 L436.849322,36.6667976 L446.409322,22.0782646 L460.251988,22.0782646 L449.885322,37.7214642" id="path22"></path>
                    <path d="M40.8385323,86.2089297 C32.2687992,85.516263 24.2291994,82.6271964 17.3489329,77.8651966 C15.9125329,76.8703966 15.271333,74.9266633 16.0526663,73.3651967 C16.9978662,71.4746634 19.4187995,71.8563967 21.2687995,72.70533 C29.4431993,76.4574633 34.5333325,77.9011966 41.7406656,78.2918632 C53.7994653,78.9443965 63.3171984,73.4214633 70.9062649,65.9897302 C71.8833315,65.0318635 71.1411982,63.3719969 69.7754649,63.4470636 C63.0369318,63.8146636 51.3223987,62.5626636 38.234399,43.4897307 C26.0359993,25.7126645 13.6062663,12.2813849 9.2104131,7.9167983 C7.25469315,5.97409169 7.38750648,2.7813851 9.49010643,0.998569143 C11.1911464,-0.446742821 13.466133,-0.161326828 15.4406663,0.881382479 C19.2625329,2.90013176 37.4406657,22.1735979 43.8338656,29.2345311 C50.2275987,36.2970643 57.8885319,46.741864 69.9166649,39.3178642 C79.151598,33.617331 72.4275982,17.6058647 67.797865,7.00273166 C66.7155983,4.52357172 67.823465,1.63554513 70.2729316,0.479298489 C72.0625315,-0.364452157 74.1806648,-0.0753889637 75.6953314,1.19804914 C87.5567978,11.1746116 94.0447976,26.4793312 92.786931,42.0339975 C90.6437311,68.5345301 67.3395983,88.352263 40.8385323,86.2089297" id="path24"></path>
                    <path d="M32.6999992,52.5386639 L32.7057325,52.5386639 L32.7057325,66.0203969 C32.7057325,67.6735968 30.7067992,68.5017301 29.5374659,67.3318635 L26.4707993,64.2651969 C25.3723994,63.1667969 24.9297327,62.2787969 23.7682661,62.5495969 C23.7682661,62.5495969 20.3521328,64.1017302 16.6817329,64.1017302 C12.9270797,64.1017302 8.93750644,62.5531969 8.93750644,62.5531969 C7.82917314,62.2823969 7.33437315,63.1667969 6.23645318,64.2651969 L3.16926659,67.3318635 C1.99843995,68.5017301 0,67.6735968 0,66.0203969 L0.0052083332,52.5386639 C0.065625065,43.5589307 7.35885315,36.2943976 16.3535996,36.2943976 C25.3483994,36.2943976 32.6411992,43.5589307 32.6999992,52.5386639" id="path26"></path>
                </g>
            </g>
        </g>
    </g>
</svg>