<svg viewBox="0 0 41 33" version="1.1" xmlns="http://www.w3.org/2000/svg"><g stroke="none" stroke-width="1" fill="none" fill-rule="evenodd"><g transform="translate(-640.000000, -2525.000000)" fill="#D6D2D2" fill-rule="nonzero"><g transform="translate(640.000000, 2525.000000)"><path d="M37.3196848,2.36627897 C34.5648157,3.51744757 32.1973855,5.31878624 30.2173227,7.77034893 C28.2372605,10.2219116 27.2472441,12.7054138 27.2472441,15.2209299 C27.2472441,16.286827 27.3763765,17.2034846 27.6346455,17.9709302 C29.1412151,16.8197616 30.7768942,16.244186 32.5417322,16.244186 C34.9522429,16.244186 36.9645586,17.0009614 38.5787403,18.5145349 C40.1929214,20.0281084 41,22.0639406 41,24.622093 C41,27.0097017 40.1821607,29.0028987 38.5464569,30.6017438 C36.9107531,32.2005894 34.9091981,33 32.5417322,33 C29.1411905,33 26.5370169,31.6143547 24.7291336,28.8430229 C23.2225646,26.5406863 22.4692915,23.6628077 22.4692915,20.2093024 C22.4692915,15.8178074 23.5992011,11.8847071 25.8590549,8.40988369 C28.1189088,4.93506028 31.5301609,2.13179356 36.0929132,4.54747351e-13 L37.3196848,2.36627897 Z M14.8503939,2.36627897 C12.0955242,3.51744757 9.72809401,5.31878624 7.74803123,7.77034893 C5.76796903,10.2219116 4.77795257,12.7054138 4.77795257,15.2209299 C4.77795257,16.286827 4.90708559,17.2034846 5.16535454,17.9709302 C6.62887883,16.8197616 8.26455801,16.244186 10.0724407,16.244186 C12.4399066,16.244186 14.4414616,17.0009614 16.0771654,18.5145349 C17.7128692,20.0281084 18.5307085,22.0639406 18.5307085,24.622093 C18.5307085,26.1996204 18.1433112,27.6279003 17.3685038,28.9069768 C16.5936969,30.1860527 15.5606363,31.1879808 14.2692915,31.9127906 C12.9779461,32.6376003 11.5790103,33 10.0724407,33 C6.67189896,33 4.06772539,31.6143547 2.25984269,28.8430229 C0.753273086,26.5406863 1.2788912e-13,23.6628077 1.2788912e-13,20.2093024 C1.2788912e-13,15.8178074 1.12991021,11.8847071 3.38976403,8.40988369 C5.64961784,4.93506028 9.06086939,2.13179356 13.6236223,4.54747351e-13 L14.8503939,2.36627897 Z" id="“-copy" transform="translate(20.500000, 16.500000) rotate(-180.000000) translate(-20.500000, -16.500000) "/></g></g></g></svg>