<?xml version="1.0" encoding="UTF-8"?>
<svg id="Layer_1" xmlns="http://www.w3.org/2000/svg" version="1.1" viewBox="0 0 96.7 88.6">
  <!-- Generator: Adobe Illustrator 29.5.1, SVG Export Plug-In . SVG Version: 2.1.0 Build 141)  -->
  <g id="g10">
    <path id="path24" d="M94.7,45.7C92.5,19.2,69.2-.6,42.7,1.5c-8.6.7-16.6,3.6-23.5,8.3-1.4,1-2.1,2.9-1.3,4.5.9,1.9,3.4,1.5,5.2.7,8.2-3.8,13.3-5.2,20.5-5.6,12.1-.7,21.6,4.9,29.2,12.3,1,1,.2,2.6-1.1,2.5-6.7-.4-18.5.9-31.5,20-12.2,17.8-24.6,31.2-29,35.6-2,1.9-1.8,5.1.3,6.9,1.7,1.4,4,1.2,6,.1,3.8-2,22-21.3,28.4-28.4,6.4-7.1,14.1-17.5,26.1-10.1,9.2,5.7,2.5,21.7-2.1,32.3-1.1,2.5,0,5.4,2.5,6.5,1.8.8,3.9.6,5.4-.7,11.9-10,18.3-25.3,17.1-40.8"/>
    <path id="path26" d="M34.6,35.2h0v-13.5c0-1.7-2-2.5-3.2-1.3l-3.1,3.1c-1.1,1.1-1.5,2-2.7,1.7,0,0-3.4-1.6-7.1-1.6s-7.7,1.5-7.7,1.5c-1.1.3-1.6-.6-2.7-1.7l-3.1-3.1c-1.2-1.2-3.2-.3-3.2,1.3v13.5c0,9,7.4,16.2,16.4,16.2s16.3-7.3,16.3-16.2"/>
  </g>
</svg>