<svg width="339px" height="165px" viewBox="0 0 339 165" version="1.1" xmlns="http://www.w3.org/2000/svg" xmlns:xlink="http://www.w3.org/1999/xlink">
    <title>logo</title>
    <g id="Page-1" stroke="none" stroke-width="1" fill="none" fill-rule="evenodd">
        <g id="logo" fill="#29a611" fill-rule="nonzero">
            <g id="g10" transform="translate(169.334662, 82.457396) scale(-1, 1) rotate(-180.000000) translate(-169.334662, -82.457396) ">
                <path d="M21.4770661,9.55989309 C14.897333,9.55989309 9,11.2994797 4.0968799,14.6510663 L0,5.77343986 C5.58645319,1.98697328 12.910933,0 21.8489328,0 C35.2573325,0 42.2087989,4.65625322 42.2087989,13.593733 C42.2087989,22.3463994 37.4917324,25.697866 23.0917328,27.002666 C15.6426663,27.6849326 14.028133,28.3671993 14.028133,30.6015992 C14.028133,32.9635992 16.8843996,34.1406658 22.2854661,34.1406658 C27.4983993,34.1406658 32.2166659,32.8359992 36.1895991,30.1666659 L40.0994657,38.6718657 C35.1333325,41.963599 28.8639993,43.7005322 21.5395995,43.7005322 C9.1869731,43.7005322 1.92499995,38.6718657 1.92499995,30.1666659 C1.92499995,21.3541328 6.58021317,18.0625329 20.9811995,16.6978662 C28.4917326,16.0155996 30.1046659,15.3333329 30.1046659,13.158853 C30.1046659,10.7395864 27.3119993,9.55989309 21.4770661,9.55989309" id="path12"></path>
                <path d="M72.3859982,33.0234658 L82.7521313,33.0234658 C86.7869312,33.0234658 88.5863978,31.6587992 88.5863978,28.4921326 C88.5863978,25.3879994 86.7869312,23.9609327 82.7521313,23.9609327 L72.3859982,23.9609327 L72.3859982,33.0234658 Z M72.3859982,14.0286663 L84.1802646,14.0286663 C95.0411976,14.0286663 100.752131,19.0573329 100.752131,28.4921326 C100.752131,37.9895991 95.0411976,42.9557323 84.1802646,42.9557323 L60.4666652,42.9557323 L60.4666652,0.744791981 L72.3859982,0.744791981 L72.3859982,14.0286663" id="path14"></path>
                <path d="M136.68533,33.3333325 C143.450663,33.3333325 147.919996,28.7421326 147.919996,21.8515995 C147.919996,14.960933 143.450663,10.3671864 136.68533,10.3671864 C129.981197,10.3671864 125.51253,14.960933 125.51253,21.8515995 C125.51253,28.7421326 129.981197,33.3333325 136.68533,33.3333325 M136.68533,0 C150.838663,0 160.025329,8.63021312 160.025329,21.8515995 C160.025329,35.0702658 150.838663,43.7005322 136.68533,43.7005322 C122.594264,43.7005322 113.345864,35.0702658 113.345864,21.8515995 C113.345864,8.63021312 122.594264,0 136.68533,0" id="path16"></path>
                <polyline id="path18" points="188.917329 11.0494797 196.611995 18.4349329 208.530661 0.744791981 222.621328 0.744791981 205.179995 26.692666 222.002661 42.9557323 206.730661 42.9557323 188.917329 25.0155994 188.917329 42.9557323 176.997329 42.9557323 176.997329 0.744791981 188.917329 0.744791981 188.917329 11.0494797"></polyline>
                <path d="M256.03466,31.5338659 L260.999993,17.6901329 L251.00666,17.6901329 L256.03466,31.5338659 Z M247.469327,8.69010645 L264.53866,8.69010645 L267.64266,0.744791981 L280.491993,0.744791981 L262.429327,42.9557323 L250.19866,42.9557323 L232.135994,0.744791981 L244.365327,0.744791981 L247.469327,8.69010645" id="path20"></path>
                <path d="M307.630659,33.2109325 L319.238659,33.2109325 C322.839992,33.2109325 324.514659,31.9062659 324.514659,29.1119993 C324.514659,26.320266 322.839992,25.018266 319.238659,25.018266 L307.630659,25.018266 L307.630659,33.2109325 Z M307.630659,15.3333329 L315.267992,15.3333329 L324.827992,0.744791981 L338.669325,0.744791981 L328.302658,16.3879996 C333.765325,18.2499995 336.619992,22.5338661 336.619992,29.1119993 C336.619992,38.1745324 331.221325,42.9557323 320.853325,42.9557323 L295.713326,42.9557323 L295.713326,0.744791981 L307.630659,0.744791981 L307.630659,15.3333329" id="path22"></path>
                <path d="M215.650661,120.580264 C213.507995,147.08133 190.203995,166.899996 163.702663,164.755996 C155.131996,164.062663 147.09333,161.173329 140.21333,156.411996 C138.775997,155.417329 138.134663,153.473329 138.915997,151.911996 C139.862663,150.02133 142.283996,150.402663 144.13333,151.251996 C152.306663,155.005329 157.397329,156.447996 164.603996,156.838663 C176.663996,157.489329 186.181329,151.967996 193.769328,144.535996 C194.746662,143.578663 194.005328,141.918663 192.638662,141.994663 C185.901329,142.36133 174.185329,141.10933 161.098663,122.03693 C148.898663,104.258397 136.46933,90.8281311 132.075063,86.4635978 C130.11773,84.5207979 130.25213,81.3281313 132.353597,79.5442647 C134.054663,78.101598 136.330663,78.387998 138.303997,79.4270647 C142.126663,81.4478646 160.305329,100.720797 166.697329,107.781731 C173.090662,114.844264 180.753329,125.28853 192.781329,117.863997 C202.014662,112.164531 195.291995,96.1510643 190.661329,85.5494645 C189.579995,83.0677313 190.687995,80.1822647 193.137329,79.025998 C194.926662,78.1822647 197.043995,78.4713314 198.559995,79.744798 C210.421328,89.7213311 216.909328,105.026531 215.650661,120.580264" id="path24"></path>
                <path d="M155.563996,131.085463 L155.569329,131.085463 L155.569329,144.566663 C155.569329,146.22133 153.570663,147.04933 152.40133,145.878663 L149.33333,142.810663 C148.235996,141.714663 147.79333,140.826663 146.631996,141.095996 C146.631996,141.095996 143.215996,142.647996 139.54533,142.647996 C135.790663,142.647996 131.801597,141.099996 131.801597,141.099996 C130.693197,140.830663 130.198397,141.714663 129.099463,142.810663 L126.03333,145.878663 C124.863997,147.04933 122.863997,146.22133 122.863997,144.566663 L122.86933,131.085463 C122.929197,122.104664 130.221863,114.84173 139.21733,114.84173 C148.211996,114.84173 155.505329,122.104664 155.563996,131.085463" id="path26"></path>
            </g>
        </g>
    </g>
</svg>